<svg width="56" height="60" viewBox="0 0 56 60" fill="none" xmlns="http://www.w3.org/2000/svg">
<path d="M27.3493 6.45928H29.2194C28.9203 5.57496 28.7834 4.64452 28.8155 3.71223C29.7391 3.67875 30.6612 3.8095 31.5384 4.0983V2.30158C30.6614 2.59236 29.7398 2.72806 28.8155 2.7025C28.7897 1.78515 28.9265 0.870427 29.2194 0H27.3493C27.6403 0.870608 27.772 1.78585 27.7383 2.7025C26.8189 2.72724 25.9023 2.59154 25.0303 2.30158V4.1577C25.8987 3.84923 26.816 3.69833 27.7383 3.71223C27.7788 4.64381 27.6469 5.57487 27.3493 6.45928Z" fill="white"/>
<path d="M51.9012 15.7251C51.9012 21.4271 51.9012 25.7629 51.9012 31.4798C51.9012 38.236 51.9012 52.0455 51.9012 54.8817C49.2166 54.1327 46.4571 53.6796 43.6725 53.5304C38.1481 53.2492 32.709 54.9695 28.3671 58.3712C24.3517 55.164 19.3377 53.4422 14.1838 53.5007C10.9985 53.5598 7.8307 53.9833 4.7432 54.7629C4.7432 49.1945 4.7432 43.3738 4.7432 37.8203C4.7432 30.3958 4.7432 16.0963 4.7432 15.6805C4.7432 15.2648 3.24707 14.7599 3.24707 15.1311C3.24707 20.848 3.24707 25.7332 3.24707 31.4649C3.24707 38.8894 3.24707 54.8371 3.24707 55.2232C3.24707 55.6093 4.18963 55.4905 4.36917 55.4459C7.22591 54.7936 10.1454 54.4501 13.0766 54.4214C18.1635 54.3323 23.8787 55.4459 27.649 59.1433C27.8513 59.2819 28.0913 59.3561 28.3372 59.3561C28.583 59.3561 28.823 59.2819 29.0254 59.1433C32.8705 55.3865 38.5258 54.258 43.6875 54.4065C46.5952 54.4645 49.4866 54.8531 52.3052 55.5647C52.4698 55.5647 53.3824 55.6835 53.3824 55.342C53.3824 49.64 53.3824 43.6707 53.3824 37.9539C53.3824 30.5294 53.3824 15.5617 53.3824 15.1311C53.3824 14.7005 51.9012 15.3539 51.9012 15.7251Z" fill="white"/>
<path d="M10.8178 10.6765C13.4959 8.65701 15.4409 6.42967 18.8221 6.42967C19.5636 6.48024 20.2623 6.79251 20.7919 7.30998C21.3216 7.82746 21.6471 8.51596 21.7097 9.25096C21.7097 9.99341 21.5152 11.4931 19.8395 11.4931C18.1638 11.4931 17.9394 9.72613 18.5379 8.7461C16.3834 8.7461 16.2637 12.0723 19.8694 12.0723C20.258 12.109 20.6501 12.0663 21.0214 11.9468C21.3927 11.8273 21.7355 11.6336 22.0285 11.3776C22.3215 11.1216 22.5585 10.8087 22.725 10.4583C22.8914 10.1079 22.9838 9.72728 22.9963 9.34006C22.9963 8.09275 22.1136 5.9248 18.8221 5.9248C15.2165 5.9248 12.8376 7.75122 9.99496 9.91916C8.68275 10.9576 7.16682 11.7132 5.54391 12.1376C3.921 12.562 2.22677 12.646 0.569336 12.3841V12.9335V51.4367C0.569336 51.808 2.06547 52.3574 2.06547 51.9861C2.06547 46.4772 2.06547 16.3487 2.06547 13.1117C5.18505 13.3922 8.29977 12.5255 10.8178 10.6765Z" fill="white"/>
<path d="M55.9407 12.3841C54.2832 12.646 52.589 12.562 50.9661 12.1376C49.3432 11.7132 47.8273 10.9576 46.515 9.91916C43.5976 7.75122 41.2935 5.9248 37.6879 5.9248C34.4113 5.9248 33.5137 8.09275 33.5137 9.34006C33.5261 9.72866 33.6188 10.1106 33.7862 10.4621C33.9536 10.8136 34.192 11.1273 34.4867 11.3835C34.7813 11.6397 35.1259 11.8331 35.499 11.9516C35.8721 12.07 36.2658 12.1111 36.6555 12.0723C40.2463 12.0723 40.1266 8.7461 37.9721 8.7461C38.5706 9.72613 38.1367 11.4931 36.6705 11.4931C35.2043 11.4931 34.8003 10.0083 34.8003 9.25096C34.8625 8.51439 35.1875 7.82402 35.7168 7.3041C36.2462 6.78417 36.9451 6.46883 37.6879 6.41482C41.0841 6.41482 43.0141 8.65701 45.7071 10.6765C48.2335 12.5426 51.3706 13.4057 54.5044 13.0968V51.9861C54.5044 52.3574 56.0005 51.808 56.0005 51.4367C56.0005 51.0655 56.0005 19.0215 56.0005 12.9335V12.3841H55.9407Z" fill="white"/>
<path d="M22.3821 30.4403C21.4994 28.7773 18.3874 22.4368 17.0558 19.7491C16.7942 19.1025 16.3895 18.5226 15.8715 18.0522C15.3536 17.5819 14.7357 17.2331 14.0636 17.0318C13.4203 16.8833 10.2784 17.0318 9.5752 17.0318C11.1162 18.0566 12.3594 19.4646 13.1809 21.1152C13.6746 22.1695 16.6519 28.2278 17.6693 30.1731C18.1317 30.9118 18.7519 31.5407 19.4861 32.0153C20.2203 32.49 21.0506 32.7989 21.9183 32.9201C22.3663 32.9574 22.8167 32.9574 23.2648 32.9201C18.6268 39.0082 14.288 44.6211 14.8266 43.9529C13.7253 45.385 12.188 46.4264 10.443 46.9226V47.1899C11.7446 47.1323 13.0204 46.81 14.1914 46.2429C15.3624 45.6759 16.4035 44.8762 17.2503 43.8935C18.0583 42.8392 22.1726 37.3896 26.4366 31.7916V44.9923H30.0273V27.8715C30.9843 28.647 31.7861 29.594 32.3912 30.6631C33.3736 32.8627 34.4825 35.0045 35.7126 37.0778C36.1896 37.6513 36.8037 38.0971 37.4988 38.3746C38.194 38.6521 38.948 38.7525 39.6923 38.6666C36.9993 42.171 34.2165 45.7793 32.3313 48.259C31.6973 49.1104 31.0129 49.9235 30.2816 50.6943C29.9974 50.9912 28.4713 52.7137 27.0949 52.7137C26.7773 52.7236 26.4609 52.671 26.1638 52.559C25.8668 52.447 25.5951 52.2778 25.3642 52.0611C25.1334 51.8444 24.948 51.5845 24.8188 51.2964C24.6896 51.0083 24.619 50.6977 24.6113 50.3824C24.5607 49.7106 24.7527 49.0428 25.1529 48.4986C25.5531 47.9545 26.1355 47.5695 26.7957 47.4127C27.2816 47.3088 27.7848 47.3135 28.2687 47.4265C28.7526 47.5396 29.2051 47.758 29.5934 48.066L31.0896 47.6651C29.7896 46.8678 28.2475 46.5522 26.7358 46.7742C25.761 46.8389 24.8421 47.2495 24.1471 47.9311C23.4522 48.6127 23.0274 49.5197 22.9506 50.4864C22.9506 51.8525 24.327 53.3225 27.1098 53.3225C28.3334 53.2353 29.5249 52.8941 30.6073 52.3212C31.6897 51.7482 32.6389 50.9562 33.3936 49.9964C33.7527 49.6103 42.0113 38.726 46.7391 32.5637C46.8438 32.4152 46.9485 32.2965 47.0084 32.1925C47.6816 31.2867 50.0006 28.406 48.9683 27.129H46.1855V27.2924C47.5919 28.0942 45.4973 31.1234 44.3902 32.5637L40.5002 37.6718C40.2005 37.3419 39.9487 36.972 39.7521 36.5729C39.1088 35.3405 37.2536 31.7619 36.2961 29.787C36.0368 29.1262 35.617 28.5391 35.0741 28.078C34.5313 27.6169 33.882 27.2961 33.1841 27.1439C32.1518 27.1439 31.1045 27.1439 30.0722 27.1439C32.0172 24.6196 33.7826 22.3477 35.0244 20.7885C35.6976 19.957 36.341 19.1255 37.0741 18.3533C37.3583 18.0563 38.8994 16.3339 40.2758 16.3339C40.5946 16.324 40.9122 16.377 41.2102 16.49C41.5082 16.6029 41.7806 16.7734 42.0117 16.9917C42.2427 17.21 42.4278 17.4716 42.5562 17.7614C42.6845 18.0512 42.7536 18.3635 42.7594 18.68C42.807 19.3512 42.6138 20.0176 42.214 20.5611C41.8143 21.1046 41.2337 21.4902 40.575 21.6498C40.0855 21.7507 39.5796 21.7432 39.0934 21.6277C38.6072 21.5122 38.1527 21.2916 37.7623 20.9816L36.2662 21.3973C37.5601 22.1973 39.0932 22.5278 40.6049 22.3328C41.5925 22.2672 42.5227 21.8491 43.224 21.1559C43.9252 20.4627 44.35 19.5411 44.4201 18.5612C44.4201 17.1803 43.0287 15.7251 40.2459 15.7251C39.0241 15.8132 37.8343 16.1532 36.7523 16.7234C35.6704 17.2935 34.7201 18.0813 33.9621 19.0364C33.7078 19.3185 32.1518 21.3231 30.0273 24.085V9.23608H26.3618V28.9554C25.5539 30.0097 24.716 31.0937 23.9081 32.1777C23.2583 31.7374 22.733 31.1393 22.3821 30.4403Z" fill="white"/>
</svg>
